<?xml version="1.0" standalone="no"?>
<!DOCTYPE svg PUBLIC "-//W3C//DTD SVG 20010904//EN"
 "http://www.w3.org/TR/2001/REC-SVG-20010904/DTD/svg10.dtd">
<svg version="1.0" xmlns="http://www.w3.org/2000/svg"
 width="4088.000000pt" height="4088.000000pt" viewBox="0 0 4088.000000 4088.000000"
 preserveAspectRatio="xMidYMid meet">
<metadata>
Created by potrace 1.14, written by Peter Selinger 2001-2017
</metadata>
<g transform="translate(0.000000,4088.000000) scale(0.100000,-0.100000)"
fill="#000000" stroke="none">
<path d="M20315 39855 c-82 -40 -235 -114 -340 -165 -104 -51 -239 -116 -300
-145 -60 -29 -191 -92 -290 -140 -364 -177 -513 -249 -620 -300 -60 -29 -200
-96 -310 -150 -110 -53 -260 -126 -332 -161 -73 -35 -213 -103 -310 -150 -98
-48 -232 -112 -298 -144 -66 -32 -201 -97 -300 -145 -99 -48 -245 -119 -324
-157 -78 -38 -218 -105 -310 -150 -91 -44 -233 -113 -316 -153 -340 -164 -451
-218 -612 -296 -92 -45 -235 -114 -318 -154 -241 -116 -447 -216 -640 -310
-99 -48 -234 -113 -300 -145 -66 -32 -199 -96 -295 -142 -96 -47 -242 -118
-325 -158 -82 -40 -224 -109 -315 -153 -91 -43 -219 -105 -285 -137 -66 -32
-205 -99 -310 -150 -104 -51 -255 -124 -335 -162 -80 -39 -224 -109 -320 -156
-96 -46 -229 -111 -295 -142 -66 -32 -201 -97 -300 -145 -99 -48 -238 -116
-310 -150 -71 -34 -220 -106 -330 -160 -110 -54 -254 -123 -320 -155 -185 -89
-391 -188 -600 -290 -197 -96 -405 -197 -630 -305 -71 -35 -206 -100 -300
-145 -93 -45 -237 -115 -320 -155 -82 -40 -226 -110 -320 -155 -93 -45 -224
-108 -290 -140 -66 -32 -210 -101 -320 -155 -110 -53 -261 -126 -335 -162 -74
-36 -200 -97 -280 -136 -80 -38 -217 -105 -305 -147 -88 -43 -232 -112 -320
-155 -88 -43 -227 -110 -310 -150 -82 -40 -231 -112 -330 -160 -192 -93 -383
-185 -610 -295 -77 -37 -214 -103 -305 -147 -449 -219 -579 -281 -935 -453
-77 -37 -219 -106 -315 -152 -305 -148 -441 -214 -590 -286 -80 -38 -230 -111
-335 -162 -104 -51 -253 -123 -330 -160 -233 -112 -441 -213 -610 -295 -88
-43 -223 -108 -300 -145 -77 -37 -223 -108 -325 -158 -102 -49 -232 -112 -290
-140 -58 -27 -206 -99 -330 -159 -124 -60 -285 -138 -358 -173 l-132 -64 0
-9793 0 -9793 23 -9 c12 -5 139 -66 282 -136 143 -70 296 -144 340 -165 44
-21 179 -86 300 -145 121 -59 274 -133 340 -165 151 -72 389 -188 615 -298 96
-46 240 -116 320 -155 330 -158 434 -209 605 -292 174 -85 322 -156 625 -303
80 -38 222 -107 315 -152 401 -194 487 -236 610 -295 72 -34 207 -100 300
-145 94 -45 235 -114 315 -152 80 -39 224 -109 320 -156 96 -46 238 -115 315
-152 77 -37 221 -107 320 -155 99 -48 239 -116 310 -150 72 -34 211 -102 310
-150 99 -48 239 -116 310 -150 177 -85 602 -291 915 -443 96 -46 234 -113 305
-147 130 -63 308 -149 630 -305 94 -45 233 -113 310 -150 77 -37 221 -107 320
-155 99 -48 236 -114 305 -147 69 -34 213 -103 320 -156 107 -52 249 -120 315
-152 126 -60 295 -142 580 -280 94 -45 238 -115 320 -155 83 -40 227 -110 320
-155 94 -45 233 -113 310 -150 77 -37 221 -107 320 -155 99 -48 248 -120 330
-160 83 -40 220 -106 305 -148 85 -41 225 -108 310 -149 221 -107 388 -188
600 -291 102 -49 250 -121 330 -160 80 -38 215 -103 300 -144 85 -42 214 -104
285 -138 72 -34 229 -111 350 -170 121 -59 261 -127 310 -150 50 -24 180 -87
290 -140 110 -53 265 -129 345 -167 80 -39 215 -104 300 -145 85 -42 218 -106
295 -143 211 -102 452 -218 625 -302 85 -42 223 -108 305 -148 83 -40 222
-107 310 -150 160 -78 334 -162 645 -312 91 -44 215 -104 275 -133 61 -29 196
-94 300 -145 230 -112 491 -238 640 -310 61 -29 225 -109 365 -177 140 -69
262 -125 270 -125 8 -1 80 31 160 69 80 39 219 107 310 151 91 43 239 115 330
159 91 45 226 110 300 146 192 92 530 256 935 452 99 48 234 113 300 145 66
32 201 97 300 145 99 48 243 118 320 155 77 37 221 107 320 155 99 48 250 121
335 162 85 42 216 105 290 141 74 36 137 66 140 67 3 0 82 38 175 84 351 172
420 205 425 206 3 1 75 35 160 77 85 41 225 109 310 151 85 41 236 114 335
162 99 48 239 116 310 150 72 34 211 102 310 150 99 48 239 116 310 150 72 34
211 102 310 150 99 48 243 118 320 155 192 92 426 205 640 310 396 192 485
235 610 295 72 34 204 98 295 143 350 169 509 246 615 297 61 29 200 96 310
150 217 106 447 217 620 300 61 29 209 101 330 160 121 59 265 129 320 155 55
26 179 86 275 132 96 47 247 120 335 163 88 43 228 110 310 150 83 40 220 106
305 148 85 41 216 104 290 140 74 35 221 106 325 157 181 88 306 149 640 310
83 40 222 107 310 150 88 43 225 109 305 148 80 38 215 103 300 145 85 41 232
112 325 157 313 152 746 361 930 450 77 37 205 99 285 137 80 39 231 112 335
163 105 51 235 114 290 140 55 26 190 91 300 145 216 105 408 198 630 305 77
37 221 107 320 155 231 112 454 220 630 305 77 37 230 111 340 165 250 122
409 198 415 200 3 1 79 38 170 82 91 44 228 111 304 148 77 37 230 111 340
164 111 54 264 128 341 165 l141 68 -1 9791 0 9791 -35 18 c-34 17 -384 187
-645 313 -71 35 -206 100 -300 145 -93 45 -233 113 -310 150 -151 73 -346 167
-630 305 -99 48 -234 113 -300 145 -66 32 -201 97 -300 145 -275 134 -477 231
-620 300 -190 92 -416 201 -620 300 -196 95 -416 202 -620 300 -71 34 -211
102 -310 150 -99 48 -245 119 -325 157 -80 39 -215 104 -300 145 -85 42 -222
108 -305 148 -82 40 -224 108 -315 153 -91 44 -226 109 -300 145 -74 35 -216
104 -315 152 -99 48 -234 113 -300 145 -66 32 -214 104 -330 160 -115 56 -264
128 -330 160 -66 32 -201 97 -300 145 -99 48 -238 116 -310 150 -266 128 -426
205 -640 310 -121 59 -256 124 -300 145 -44 21 -165 79 -270 130 -104 51 -257
125 -340 165 -82 40 -222 107 -310 150 -88 43 -223 108 -300 145 -77 37 -225
109 -330 160 -104 51 -244 118 -310 150 -66 32 -196 95 -290 140 -93 45 -233
113 -310 150 -136 66 -288 139 -640 310 -93 45 -233 113 -310 150 -77 37 -216
105 -310 150 -93 45 -233 113 -310 150 -77 37 -221 107 -320 155 -99 48 -238
116 -310 150 -126 61 -265 128 -640 310 -99 48 -229 111 -290 140 -60 29 -191
92 -290 140 -170 83 -266 129 -635 307 -85 42 -227 110 -315 153 -221 107
-447 217 -590 285 -66 32 -223 108 -350 170 -126 62 -266 129 -310 150 -44 21
-159 76 -255 123 -96 46 -249 120 -340 164 -637 309 -784 381 -935 453 -115
55 -253 122 -650 315 -99 48 -225 109 -280 135 -129 61 -458 221 -555 270
l-75 37 -150 -72z m187 -1354 c24 -10 133 -62 243 -116 110 -54 254 -123 320
-155 66 -32 197 -95 290 -140 94 -45 233 -113 310 -150 77 -37 221 -107 320
-155 99 -48 239 -115 310 -150 72 -34 225 -109 340 -165 116 -56 260 -126 320
-155 61 -29 187 -90 280 -135 308 -149 498 -242 610 -295 61 -29 196 -94 300
-145 105 -51 255 -124 335 -162 80 -39 222 -107 315 -153 94 -45 231 -112 305
-148 74 -35 214 -103 310 -150 414 -201 502 -243 625 -302 72 -34 211 -102
310 -150 99 -48 234 -113 300 -145 66 -32 210 -102 320 -155 110 -54 259 -126
330 -160 72 -34 211 -102 310 -150 99 -48 235 -114 303 -146 67 -33 202 -98
300 -145 97 -48 245 -119 327 -159 83 -40 220 -106 305 -148 260 -125 488
-236 630 -304 74 -36 209 -102 300 -146 91 -44 228 -110 305 -147 77 -37 217
-105 310 -150 94 -45 224 -108 290 -140 66 -32 210 -101 320 -155 110 -54 245
-119 300 -145 55 -26 199 -96 320 -155 121 -59 274 -133 340 -165 121 -58 287
-139 625 -302 102 -50 226 -109 275 -133 50 -23 198 -95 330 -160 267 -130
388 -188 395 -190 3 -1 95 -46 205 -100 110 -53 250 -121 310 -150 61 -29 205
-99 320 -155 116 -56 264 -128 330 -160 176 -85 536 -259 925 -448 228 -110
466 -225 625 -302 77 -37 205 -99 285 -138 80 -38 222 -107 315 -152 94 -45
249 -121 345 -167 96 -47 225 -109 285 -138 103 -50 218 -105 645 -312 176
-86 330 -160 600 -290 310 -150 465 -226 470 -230 3 -3 5 -4094 5 -9091 l0
-9086 -45 -22 c-109 -54 -456 -222 -575 -279 -71 -34 -206 -100 -300 -145
-199 -96 -443 -214 -605 -292 -63 -31 -203 -98 -310 -151 -107 -52 -256 -124
-330 -160 -74 -35 -216 -104 -315 -152 -99 -48 -238 -115 -310 -150 -152 -73
-432 -209 -630 -305 -77 -37 -212 -103 -300 -145 -88 -43 -234 -113 -325 -157
-91 -44 -230 -112 -310 -150 -80 -39 -224 -109 -320 -155 -96 -47 -233 -113
-305 -148 -71 -34 -202 -97 -290 -140 -88 -43 -227 -110 -310 -150 -82 -40
-226 -110 -320 -155 -93 -45 -233 -113 -310 -150 -77 -37 -216 -105 -310 -150
-93 -45 -233 -113 -310 -150 -77 -37 -212 -102 -300 -145 -407 -197 -499 -242
-620 -300 -71 -35 -215 -104 -320 -155 -104 -51 -253 -123 -330 -160 -285
-137 -435 -210 -620 -300 -104 -51 -244 -118 -310 -150 -117 -56 -267 -129
-630 -305 -99 -48 -238 -116 -310 -150 -71 -34 -206 -100 -300 -145 -247 -120
-441 -213 -600 -290 -77 -37 -230 -111 -340 -165 -110 -54 -240 -117 -290
-140 -49 -24 -180 -86 -290 -140 -110 -53 -252 -122 -315 -152 -63 -31 -216
-105 -340 -165 -124 -61 -256 -125 -295 -143 -38 -18 -200 -96 -359 -174 -159
-78 -290 -141 -291 -141 -2 0 -115 -54 -252 -121 -136 -67 -300 -146 -363
-176 -63 -31 -198 -96 -300 -145 -102 -50 -243 -119 -315 -153 -71 -35 -215
-104 -320 -155 -104 -51 -244 -118 -310 -150 -66 -32 -210 -101 -320 -155
-110 -53 -236 -114 -280 -135 -44 -21 -179 -86 -300 -145 -312 -153 -509 -248
-515 -250 -3 -1 -66 -31 -140 -67 -74 -36 -200 -97 -280 -136 -80 -38 -230
-111 -335 -162 -104 -51 -251 -121 -325 -157 -74 -36 -200 -97 -280 -135 -420
-204 -453 -218 -472 -212 -10 3 -119 54 -241 113 -313 153 -500 243 -662 321
-77 37 -225 109 -330 160 -104 51 -239 116 -300 145 -60 29 -184 89 -275 133
-91 44 -235 113 -320 155 -85 41 -236 114 -335 162 -99 48 -243 118 -320 155
-77 37 -212 102 -300 145 -88 43 -227 110 -310 150 -379 183 -480 232 -625
302 -85 42 -218 106 -295 143 -77 37 -230 112 -340 165 -110 54 -258 126 -330
160 -71 34 -206 100 -300 145 -93 45 -224 108 -290 140 -66 32 -201 97 -300
145 -99 48 -241 117 -315 152 -74 36 -223 108 -330 160 -107 53 -226 110 -265
128 -38 18 -204 99 -369 179 -164 80 -300 146 -301 146 -1 0 -115 54 -251 121
-137 67 -298 145 -359 174 -60 29 -195 94 -300 145 -104 51 -244 118 -310 150
-66 32 -210 101 -320 155 -110 54 -258 126 -330 160 -218 105 -574 277 -920
445 -93 45 -224 108 -290 140 -66 32 -210 101 -320 155 -110 54 -249 121 -310
150 -60 29 -191 92 -290 140 -99 48 -238 116 -310 150 -71 35 -215 104 -320
155 -104 51 -255 124 -335 162 -80 39 -215 104 -300 145 -85 42 -218 106 -295
143 -304 147 -458 221 -650 315 -110 54 -240 117 -290 140 -49 23 -184 89
-300 145 -115 56 -264 128 -330 160 -66 32 -200 96 -297 144 -458 222 -542
263 -663 321 -71 34 -201 97 -287 139 -286 138 -471 228 -613 296 -77 37 -216
105 -310 150 -93 45 -233 113 -310 150 -77 37 -221 107 -320 155 -99 48 -247
120 -330 160 -279 134 -429 207 -650 314 -121 59 -262 127 -313 151 l-92 44 2
9089 3 9088 35 19 c19 11 127 64 240 118 277 134 422 204 635 307 218 106 442
214 630 305 155 75 382 185 640 310 94 45 229 110 300 145 72 34 211 102 310
150 99 48 239 116 310 150 72 34 213 103 315 152 102 50 246 120 320 156 74
35 212 102 305 147 94 45 224 108 290 140 66 32 208 100 315 153 221 107 415
201 605 292 72 35 216 104 320 155 105 51 258 125 340 165 83 40 227 110 320
155 94 45 229 111 300 145 153 73 373 180 610 295 235 114 454 220 620 300
146 71 356 172 635 307 91 44 228 111 305 148 77 37 214 104 305 148 91 43
233 112 315 152 83 40 220 106 305 148 280 135 473 228 615 297 223 108 446
216 640 310 99 48 232 112 295 143 63 30 196 94 295 142 255 124 466 226 970
470 88 43 219 106 290 140 72 34 216 104 320 155 105 51 244 118 310 150 167
80 626 302 935 453 102 49 244 118 315 152 72 34 207 100 300 145 94 45 231
112 305 148 74 35 214 103 310 150 96 46 234 113 305 147 72 35 216 104 320
155 105 51 244 118 310 150 66 32 210 102 320 155 110 54 259 126 330 160 72
34 202 97 290 140 88 43 223 108 300 145 77 37 214 104 305 148 91 44 251 121
355 171 105 51 240 117 300 146 61 30 111 54 112 55 1 0 21 -8 45 -19z"/>
<path d="M20250 32907 c-113 -55 -207 -101 -210 -102 -5 -2 -133 -63 -425
-205 -93 -45 -242 -117 -330 -160 -88 -43 -232 -112 -320 -155 -88 -43 -225
-109 -305 -147 -80 -39 -215 -104 -300 -145 -85 -42 -213 -104 -285 -138 -71
-34 -224 -109 -340 -165 -115 -56 -264 -128 -330 -160 -200 -96 -401 -193
-590 -285 -99 -48 -234 -113 -300 -145 -66 -32 -210 -101 -320 -155 -110 -53
-249 -121 -310 -150 -60 -29 -195 -94 -300 -145 -104 -51 -253 -123 -330 -160
-77 -37 -221 -107 -320 -155 -99 -48 -229 -111 -290 -140 -60 -29 -204 -99
-320 -155 -115 -56 -264 -128 -330 -160 -66 -32 -196 -95 -290 -140 -93 -45
-224 -108 -290 -140 -66 -32 -210 -101 -320 -155 -110 -54 -258 -126 -330
-160 -71 -35 -206 -100 -300 -145 -93 -45 -228 -111 -300 -145 -71 -34 -215
-104 -320 -155 -104 -51 -253 -123 -330 -160 -77 -37 -216 -105 -310 -150 -93
-45 -224 -108 -290 -140 -66 -32 -214 -104 -330 -160 -115 -56 -259 -126 -320
-155 -144 -69 -379 -183 -585 -283 -91 -44 -226 -109 -300 -145 -74 -36 -216
-104 -315 -152 -289 -140 -501 -243 -640 -310 -186 -89 -641 -310 -945 -457
-102 -50 -243 -119 -315 -153 -71 -34 -206 -100 -300 -145 -93 -45 -233 -113
-310 -150 -77 -37 -212 -102 -300 -145 -211 -103 -438 -212 -610 -295 -77 -37
-230 -111 -340 -165 -110 -54 -258 -126 -330 -160 -196 -94 -494 -238 -977
-473 -54 -26 -98 -50 -98 -54 0 -4 9 -10 21 -13 11 -4 136 -63 277 -132 141
-69 311 -151 377 -183 66 -32 188 -90 270 -130 83 -40 209 -101 280 -135 128
-62 315 -152 650 -315 94 -45 231 -112 305 -148 421 -203 722 -348 945 -457
110 -53 250 -121 310 -150 61 -29 187 -90 280 -135 94 -45 229 -111 300 -145
72 -34 220 -106 330 -160 110 -53 251 -122 313 -151 62 -30 206 -100 320 -155
114 -56 257 -125 318 -154 60 -29 191 -92 290 -140 98 -48 233 -113 299 -145
66 -32 215 -104 330 -160 116 -56 264 -128 330 -160 66 -32 194 -93 285 -137
91 -44 233 -113 315 -153 83 -40 220 -106 305 -148 85 -41 218 -105 295 -142
77 -37 219 -106 315 -152 448 -218 637 -309 955 -463 83 -40 222 -107 310
-150 88 -42 219 -106 290 -140 72 -34 225 -109 340 -165 116 -56 264 -128 330
-160 112 -54 188 -90 555 -268 131 -63 316 -153 640 -310 63 -31 117 -57 120
-57 3 -1 86 -41 185 -89 183 -90 377 -184 630 -306 77 -37 221 -107 320 -155
99 -48 234 -113 300 -145 66 -32 201 -97 300 -145 99 -48 248 -120 330 -160
83 -40 227 -110 320 -155 94 -45 229 -111 300 -145 146 -70 368 -178 650 -315
105 -51 240 -116 300 -145 61 -29 191 -92 290 -140 219 -106 475 -230 610
-295 55 -26 174 -84 264 -128 l165 -80 85 43 c81 40 131 64 496 240 166 80
374 181 655 317 102 50 246 120 320 155 74 36 205 99 290 141 283 137 484 234
605 292 66 32 215 104 330 160 116 56 260 126 320 155 61 29 196 94 300 145
105 51 240 116 300 145 61 29 200 96 310 150 219 106 414 201 630 305 167 81
404 196 650 315 99 48 225 109 280 135 55 26 186 89 290 140 105 51 260 126
345 167 85 42 229 111 320 155 318 155 683 331 895 433 72 34 216 104 320 155
105 51 249 120 320 155 72 34 204 99 295 142 91 44 221 108 290 141 69 33 238
115 375 181 138 67 289 141 337 164 48 23 88 44 87 47 0 3 -53 30 -117 61 -64
32 -252 123 -417 204 -282 139 -474 233 -980 480 -115 56 -275 135 -355 175
-103 51 -152 70 -170 66 -14 -2 -135 -58 -270 -124 -135 -66 -308 -150 -385
-187 -77 -37 -214 -104 -305 -148 -91 -43 -223 -108 -295 -142 -71 -34 -211
-102 -310 -150 -350 -170 -492 -238 -630 -305 -77 -37 -225 -109 -330 -160
-104 -51 -235 -114 -290 -140 -55 -26 -190 -92 -300 -145 -110 -54 -265 -129
-345 -167 -80 -39 -212 -103 -295 -143 -82 -40 -215 -104 -295 -142 -141 -68
-287 -139 -630 -306 -91 -44 -228 -110 -305 -147 -77 -37 -216 -105 -310 -150
-93 -45 -233 -113 -310 -150 -77 -37 -221 -107 -320 -155 -99 -48 -243 -118
-320 -155 -77 -37 -216 -105 -310 -150 -93 -45 -215 -104 -270 -130 -55 -26
-207 -100 -338 -164 -131 -64 -240 -116 -243 -116 -2 0 -71 32 -152 71 -81 40
-214 104 -297 144 -376 182 -463 224 -655 317 -113 55 -241 117 -285 138 -71
33 -160 76 -615 298 -63 31 -117 57 -120 57 -3 1 -84 40 -180 87 -247 121
-477 232 -605 293 -60 29 -204 99 -320 155 -253 124 -501 244 -650 315 -60 29
-191 92 -290 140 -99 48 -243 118 -320 155 -297 143 -484 234 -945 457 -96 47
-233 114 -305 148 -71 34 -211 102 -310 150 -99 48 -243 118 -320 155 -77 37
-203 98 -280 135 -77 37 -282 137 -455 223 -331 163 -430 211 -1110 539 -229
111 -389 189 -640 310 -118 58 -226 109 -240 115 -27 11 9 30 480 257 96 47
265 128 375 181 110 54 265 129 345 168 80 38 226 109 325 157 99 48 234 113
300 145 66 32 206 99 310 150 105 51 244 118 310 150 66 32 210 101 320 155
110 54 245 119 300 145 55 26 190 91 300 145 110 54 250 121 310 150 61 29
200 96 310 150 110 54 259 126 330 160 72 35 216 104 320 155 105 51 244 118
310 150 66 32 192 93 280 136 88 43 162 78 165 79 3 1 82 39 175 84 94 46 229
111 300 146 169 81 396 191 620 300 99 48 243 118 320 155 77 37 217 105 310
150 94 45 233 113 310 150 77 37 221 107 320 155 99 48 239 115 310 150 72 34
202 97 290 140 237 115 453 220 600 290 72 35 199 96 283 137 l153 74 182 -89
c100 -49 281 -138 402 -197 121 -59 346 -170 500 -246 154 -75 282 -138 285
-139 3 0 88 -42 190 -92 492 -241 731 -358 910 -446 107 -52 321 -156 475
-232 154 -76 375 -184 490 -240 116 -56 325 -159 465 -227 140 -69 363 -178
495 -243 624 -306 764 -374 950 -465 110 -54 317 -155 460 -225 143 -70 359
-176 480 -235 121 -59 346 -170 500 -246 154 -75 282 -138 285 -139 3 0 100
-47 215 -104 116 -57 306 -151 424 -208 118 -57 325 -159 460 -225 341 -167
717 -352 966 -473 116 -56 336 -164 490 -240 154 -75 366 -179 470 -230 105
-51 314 -153 465 -227 151 -75 337 -165 412 -202 l137 -67 93 44 c51 25 183
89 293 142 110 53 254 123 320 155 66 32 199 96 295 143 96 46 243 117 325
157 481 232 556 271 550 280 -3 5 -10 10 -15 10 -4 0 -160 75 -347 166 -186
92 -428 210 -538 264 -110 54 -326 160 -480 235 -154 76 -379 186 -500 245
-121 59 -346 169 -500 245 -154 76 -374 184 -490 240 -224 110 -548 268 -1000
490 -273 134 -500 245 -990 485 -132 65 -361 177 -510 250 -416 204 -990 485
-1460 715 -126 62 -360 177 -520 255 -436 214 -1037 509 -1465 717 -107 53
-332 163 -500 246 -168 82 -399 196 -515 252 -197 96 -370 181 -1000 490 -628
308 -822 403 -1010 495 -110 54 -335 164 -500 245 -693 341 -643 318 -679 301
-17 -8 -148 -72 -291 -141 -143 -70 -300 -147 -350 -170 -49 -23 -180 -86
-290 -140 -110 -54 -245 -119 -300 -145 -55 -26 -190 -92 -300 -145 -386 -188
-551 -268 -650 -315 -105 -50 -295 -142 -630 -305 -110 -54 -249 -121 -310
-150 -113 -54 -300 -145 -605 -292 -96 -47 -231 -112 -300 -146 -69 -33 -208
-100 -310 -150 -102 -49 -248 -120 -325 -157 -77 -37 -216 -105 -310 -150 -93
-45 -233 -113 -310 -150 -77 -37 -214 -104 -305 -147 -219 -106 -423 -205
-600 -291 -80 -38 -224 -108 -320 -155 -264 -128 -439 -212 -610 -294 -85 -40
-168 -81 -185 -90 -46 -25 -53 -29 -155 -77 -122 -57 -589 -283 -935 -452 -99
-48 -182 -88 -185 -89 -6 -1 -81 -37 -435 -210 -132 -65 -271 -132 -310 -150
-38 -18 -169 -81 -290 -140 -121 -59 -265 -129 -320 -155 -55 -26 -197 -95
-315 -153 -118 -57 -258 -125 -310 -150 -52 -25 -185 -89 -295 -142 -346 -168
-410 -198 -420 -198 -11 0 -77 31 -370 173 -104 51 -255 124 -335 163 -364
175 -454 219 -590 285 -80 38 -235 113 -345 167 -110 53 -224 108 -254 122
l-55 25 155 75 c85 42 215 104 289 140 74 36 209 101 300 145 91 45 228 111
305 148 77 37 212 102 300 145 88 43 223 108 300 145 77 37 221 107 320 155
99 48 248 120 331 160 83 41 223 108 310 151 87 42 213 102 279 134 66 32 206
99 310 150 105 51 249 120 320 155 72 34 211 102 310 150 99 48 245 119 325
157 255 124 450 218 630 306 96 46 238 115 315 152 282 136 414 200 600 290
105 51 244 118 310 150 66 32 206 99 310 150 105 51 260 126 345 167 85 42
220 107 300 145 137 67 248 120 625 303 88 43 214 103 280 135 141 68 372 179
650 315 110 53 250 121 310 150 176 84 386 186 590 285 105 51 244 118 310
150 66 32 215 104 330 160 116 56 246 119 290 140 44 21 184 88 310 150 127
62 280 136 340 165 149 72 383 185 600 290 99 48 239 116 310 150 72 34 211
102 310 150 410 199 535 259 620 300 50 23 163 78 252 122 l162 79 158 -77
c205 -100 899 -440 1378 -674 132 -65 344 -168 470 -230 127 -62 343 -168 480
-235 138 -67 345 -169 460 -225 116 -57 332 -162 480 -235 149 -73 369 -181
490 -240 121 -59 337 -165 480 -235 143 -70 350 -171 460 -225 110 -54 326
-160 480 -235 268 -132 465 -228 935 -458 118 -57 332 -162 475 -232 428 -210
738 -362 960 -470 116 -56 336 -164 490 -240 272 -134 508 -249 940 -460 505
-247 962 -471 1900 -930 143 -70 357 -175 475 -232 387 -190 671 -328 935
-458 300 -147 757 -371 1059 -518 473 -231 590 -292 592 -309 4 -30 43 -145
70 -205 84 -185 218 -342 390 -458 286 -193 642 -242 967 -133 221 73 423 223
555 411 63 89 136 246 168 362 25 90 28 116 28 265 0 179 -3 204 -40 327 -123
411 -479 720 -899 781 -62 9 -252 8 -323 -1 -144 -18 -343 -96 -461 -180 -25
-18 -51 -36 -57 -39 -6 -4 -57 16 -115 44 -111 53 -285 137 -501 242 -73 35
-227 110 -343 166 -115 56 -264 128 -330 160 -124 60 -338 163 -600 290 -413
200 -491 238 -630 305 -147 71 -296 143 -620 300 -88 43 -218 106 -290 140
-71 35 -206 100 -300 145 -93 45 -237 115 -320 155 -82 40 -231 112 -330 160
-285 138 -480 232 -620 300 -71 34 -215 104 -320 155 -104 51 -235 114 -290
140 -55 26 -190 91 -300 145 -192 93 -319 155 -627 304 -79 38 -236 114 -351
169 -114 56 -208 101 -210 101 -1 0 -69 33 -152 74 -82 41 -206 101 -275 135
-676 326 -745 359 -1250 604 -91 45 -228 111 -305 148 -77 37 -216 105 -310
150 -93 45 -224 108 -290 140 -66 32 -201 97 -300 145 -99 48 -247 120 -330
160 -178 86 -386 186 -620 300 -93 45 -235 114 -315 153 -80 38 -217 105 -305
147 -88 43 -225 109 -305 147 -350 169 -456 221 -625 303 -216 105 -443 215
-620 300 -71 34 -215 104 -320 155 -104 51 -253 123 -330 160 -248 120 -426
206 -600 290 -243 118 -436 210 -438 209 -1 0 -94 -46 -207 -102z"/>
<path d="M20710 26024 c-23 -13 -312 -154 -625 -304 -66 -32 -201 -97 -300
-145 -349 -169 -471 -228 -620 -300 -253 -122 -431 -208 -640 -310 -110 -54
-245 -119 -300 -145 -55 -26 -181 -87 -280 -135 -263 -128 -491 -238 -650
-315 -151 -73 -369 -178 -615 -298 -85 -41 -157 -76 -160 -77 -3 -1 -68 -32
-145 -69 -77 -38 -207 -101 -290 -141 -82 -40 -231 -112 -330 -160 -99 -48
-234 -113 -300 -145 -66 -32 -205 -99 -310 -150 -104 -51 -253 -123 -330 -160
-202 -97 -424 -205 -630 -305 -99 -48 -218 -105 -265 -128 l-85 -40 140 -68
c77 -38 219 -106 315 -153 96 -46 265 -128 375 -182 302 -146 495 -239 650
-314 77 -37 217 -105 310 -150 94 -45 229 -111 300 -145 72 -34 207 -100 300
-145 94 -45 229 -111 300 -145 72 -35 220 -107 330 -160 110 -54 254 -123 320
-155 66 -32 210 -102 320 -155 110 -54 245 -119 300 -145 55 -26 195 -94 310
-150 116 -56 264 -128 330 -160 66 -32 201 -97 300 -145 99 -48 243 -118 320
-155 171 -83 394 -191 620 -300 94 -45 229 -111 300 -145 72 -34 210 -101 308
-149 l178 -86 102 49 c126 61 378 182 602 291 94 45 229 111 300 145 72 35
211 102 310 150 340 165 490 238 610 295 119 57 301 146 650 315 99 48 234
113 300 145 148 71 370 179 620 300 105 51 249 121 320 155 72 34 216 104 320
155 105 51 244 118 310 150 301 145 423 204 605 292 196 96 348 170 600 291
74 36 234 113 355 172 121 58 301 145 399 193 482 234 473 229 446 240 -14 6
-196 94 -405 197 -209 103 -456 224 -550 270 -93 45 -300 147 -460 225 -471
231 -765 375 -1020 500 -132 65 -350 171 -485 237 -135 66 -346 170 -470 231
-124 60 -360 176 -525 257 -165 81 -394 194 -510 250 -344 168 -726 355 -1510
740 -489 240 -625 305 -632 304 -4 0 -19 -7 -33 -15z"/>
<path d="M7630 22153 c-145 -70 -214 -104 -595 -288 -82 -40 -226 -110 -320
-155 -93 -45 -224 -108 -290 -140 -66 -32 -236 -114 -379 -184 -142 -69 -260
-126 -261 -126 -1 0 -124 -59 -271 -131 -148 -72 -318 -155 -379 -184 -60 -29
-191 -92 -290 -140 -99 -48 -229 -111 -290 -140 -60 -29 -202 -97 -315 -152
-113 -55 -235 -114 -272 -132 -38 -18 -68 -34 -68 -36 0 -4 128 -67 460 -228
91 -44 235 -113 320 -154 85 -42 218 -106 295 -143 77 -37 226 -109 330 -160
105 -51 240 -116 300 -145 61 -29 200 -96 310 -150 110 -54 259 -126 330 -160
72 -34 202 -97 290 -140 339 -164 475 -230 620 -300 158 -76 350 -169 630
-305 94 -45 229 -111 300 -145 72 -35 211 -102 310 -150 99 -48 234 -113 300
-145 66 -32 210 -101 320 -155 244 -119 473 -230 620 -300 61 -29 191 -92 290
-140 193 -94 419 -203 660 -320 83 -40 227 -110 320 -155 94 -45 229 -111 300
-145 72 -34 216 -104 320 -155 105 -51 240 -116 300 -145 61 -29 200 -97 310
-150 279 -136 494 -240 600 -290 50 -24 189 -91 310 -150 121 -59 274 -133
340 -165 66 -32 194 -93 285 -137 388 -189 512 -249 635 -308 145 -70 349
-169 655 -318 113 -54 246 -119 295 -142 50 -23 187 -90 305 -147 118 -58 258
-126 310 -151 52 -25 176 -85 275 -133 99 -47 248 -119 330 -159 263 -127 455
-220 630 -305 388 -188 486 -235 610 -295 72 -34 216 -104 320 -155 105 -51
244 -118 310 -150 66 -32 201 -97 300 -145 99 -48 245 -119 325 -158 80 -38
217 -104 305 -147 173 -84 396 -192 595 -288 69 -33 228 -110 353 -171 126
-61 233 -111 238 -111 6 0 72 30 147 66 75 37 205 99 287 139 178 86 488 237
635 308 58 28 107 52 110 52 3 1 86 41 185 89 190 93 360 175 615 299 85 41
236 114 335 162 99 48 243 118 320 155 77 37 217 105 310 150 94 45 229 111
300 145 72 35 211 102 310 150 99 48 239 116 310 150 72 34 211 102 310 151
99 48 182 88 185 89 3 0 68 32 145 69 131 64 290 141 600 291 72 35 211 102
310 150 99 48 239 115 310 150 72 34 211 102 310 150 190 92 386 187 600 290
72 34 220 106 330 160 190 93 299 145 640 310 204 98 430 208 621 301 191 92
442 213 619 299 72 34 216 104 320 155 178 87 266 129 605 293 195 93 553 267
935 452 249 121 742 359 930 450 72 34 216 104 320 155 105 51 244 118 310
150 66 32 215 104 330 160 116 56 253 122 305 147 52 25 183 88 290 140 107
53 249 122 315 153 66 32 201 97 300 145 99 48 241 117 315 152 74 36 214 104
310 150 96 47 238 116 315 153 77 37 217 105 310 150 94 45 233 113 310 150
77 37 217 105 310 150 94 45 256 124 360 174 105 51 268 130 363 176 l174 84
-154 75 c-84 41 -155 75 -158 76 -5 1 -55 26 -435 210 -449 218 -518 251 -640
310 -71 34 -206 100 -300 145 -93 45 -233 113 -310 150 -77 37 -214 104 -305
147 -477 231 -728 353 -920 446 -69 33 -243 117 -387 188 -144 70 -271 130
-282 134 -22 7 -30 3 -356 -155 -202 -98 -397 -193 -652 -316 -87 -42 -232
-112 -323 -156 -91 -45 -219 -106 -285 -138 -66 -32 -201 -97 -300 -145 -180
-87 -375 -182 -620 -300 -71 -35 -215 -104 -320 -155 -104 -51 -246 -119 -315
-152 -69 -33 -208 -101 -310 -151 -102 -49 -234 -113 -295 -142 -60 -29 -204
-99 -320 -155 -222 -108 -435 -212 -650 -315 -71 -34 -197 -95 -280 -135 -305
-147 -682 -330 -965 -467 -102 -50 -230 -111 -285 -137 -55 -26 -107 -52 -115
-57 -8 -5 -24 -13 -35 -18 -31 -13 -247 -118 -470 -226 -110 -54 -258 -126
-330 -160 -127 -61 -271 -131 -640 -310 -99 -48 -238 -115 -310 -150 -71 -34
-200 -96 -285 -137 -85 -42 -218 -106 -295 -143 -77 -37 -228 -110 -335 -163
-107 -52 -244 -118 -305 -147 -60 -29 -195 -94 -300 -145 -104 -51 -239 -116
-300 -145 -60 -29 -209 -101 -330 -160 -121 -59 -272 -132 -335 -162 -63 -30
-187 -90 -275 -133 -88 -43 -225 -109 -305 -148 -135 -65 -227 -109 -630 -305
-85 -41 -216 -104 -290 -140 -74 -36 -220 -106 -323 -156 -104 -50 -191 -91
-194 -91 -3 0 -62 28 -132 62 -69 33 -196 95 -281 136 -271 130 -410 197 -595
287 -99 48 -238 116 -310 150 -71 34 -206 100 -300 145 -93 45 -233 113 -310
150 -77 37 -225 109 -330 160 -104 51 -248 121 -320 155 -278 134 -428 206
-620 300 -110 54 -258 126 -330 160 -71 34 -195 94 -275 133 -80 38 -212 102
-295 142 -305 147 -454 219 -620 300 -429 208 -529 257 -660 320 -198 96 -565
273 -930 450 -180 87 -371 180 -625 303 -399 193 -466 225 -630 304 -96 47
-233 113 -305 148 -71 34 -206 99 -300 145 -93 45 -233 113 -310 150 -203 98
-424 205 -630 305 -99 48 -238 115 -310 150 -71 34 -211 102 -310 150 -99 48
-238 116 -310 150 -71 34 -204 98 -295 143 -296 143 -482 233 -625 302 -132
64 -251 121 -645 312 -285 139 -491 238 -625 303 -71 34 -196 94 -277 134 -82
39 -154 71 -160 70 -7 0 -83 -34 -168 -76z"/>
<path d="M7719 17548 c-85 -40 -326 -157 -579 -280 -113 -55 -259 -126 -325
-158 -165 -79 -356 -171 -570 -275 -99 -48 -243 -118 -320 -155 -77 -37 -216
-105 -310 -150 -93 -45 -233 -113 -310 -150 -180 -87 -401 -194 -640 -310
-104 -51 -244 -118 -310 -150 -480 -231 -459 -220 -439 -235 10 -8 22 -15 25
-15 4 0 119 -54 255 -121 137 -67 299 -145 359 -174 61 -29 187 -90 280 -135
94 -45 229 -111 300 -145 72 -34 207 -100 300 -145 94 -45 238 -115 320 -155
83 -40 240 -116 350 -170 110 -54 245 -119 300 -145 55 -26 181 -87 280 -135
99 -48 239 -116 310 -150 72 -34 220 -106 330 -160 110 -53 254 -123 320 -155
66 -32 197 -95 290 -140 94 -45 233 -113 310 -150 77 -37 221 -107 320 -155
180 -87 351 -170 625 -303 80 -38 222 -107 315 -152 94 -45 238 -115 320 -155
320 -154 456 -220 615 -297 91 -45 233 -113 315 -153 149 -72 316 -153 618
-299 86 -42 226 -109 310 -150 83 -40 224 -108 312 -151 223 -108 447 -216
600 -290 72 -34 200 -96 285 -138 289 -139 484 -234 655 -317 94 -45 233 -113
310 -150 77 -37 214 -104 305 -148 91 -44 235 -113 320 -155 85 -41 236 -114
335 -162 180 -87 341 -165 608 -294 78 -38 222 -107 321 -155 98 -48 228 -111
290 -140 61 -30 201 -97 311 -151 110 -54 254 -123 320 -155 117 -56 252 -122
640 -310 105 -51 240 -116 300 -145 61 -29 191 -92 290 -140 205 -99 411 -199
600 -290 72 -34 218 -105 325 -157 107 -52 249 -121 315 -153 66 -32 199 -96
295 -143 209 -101 415 -200 645 -312 94 -45 221 -107 283 -137 l113 -55 37 18
c20 9 125 60 232 112 107 52 254 123 325 157 72 35 216 104 320 155 105 51
244 118 310 150 66 32 201 97 300 145 307 149 494 240 645 312 223 108 430
208 600 290 85 42 218 106 295 143 77 37 230 111 340 165 110 54 245 119 300
145 92 44 225 108 620 300 361 175 479 232 615 298 80 38 222 107 315 152 282
137 492 239 640 310 77 37 230 111 340 165 110 54 236 114 280 135 44 21 177
85 295 142 118 58 260 126 315 153 55 26 186 89 290 140 105 51 255 124 335
163 80 38 226 109 325 157 99 48 239 116 310 150 206 99 415 200 615 298 102
49 239 115 305 147 66 32 201 97 300 145 99 48 239 115 310 150 72 34 216 104
320 155 105 51 244 118 310 150 66 32 206 99 310 150 105 51 249 121 320 155
72 35 211 102 310 150 99 48 239 116 310 150 72 35 209 101 305 148 96 46 238
115 315 152 212 102 400 193 610 295 105 51 240 116 300 145 61 29 196 94 300
145 105 51 258 125 340 165 83 40 224 108 315 152 91 44 224 109 295 143 217
105 451 218 625 302 91 45 234 114 318 154 153 74 318 154 622 302 91 43 225
108 298 144 l133 64 -188 91 c-103 50 -273 133 -378 184 -104 50 -269 130
-365 176 -96 47 -224 109 -285 138 -60 29 -195 94 -300 145 -104 51 -253 123
-330 160 -348 168 -441 213 -610 295 -99 48 -238 116 -310 150 -71 35 -215
104 -320 155 -104 51 -239 116 -300 145 -60 29 -195 94 -300 145 -104 51 -194
92 -200 93 -5 0 -91 -40 -190 -88 -99 -48 -234 -113 -300 -145 -66 -32 -205
-99 -310 -150 -104 -51 -253 -123 -330 -160 -77 -37 -210 -101 -295 -143 -85
-41 -220 -106 -300 -145 -80 -38 -226 -109 -325 -157 -99 -48 -243 -118 -320
-155 -77 -37 -212 -102 -300 -145 -88 -43 -223 -108 -300 -145 -256 -124 -468
-226 -620 -301 -82 -40 -152 -74 -155 -74 -3 -1 -75 -35 -160 -77 -212 -103
-458 -223 -620 -301 -74 -35 -220 -106 -325 -157 -183 -89 -312 -151 -610
-295 -77 -37 -228 -110 -335 -163 -107 -52 -253 -123 -325 -157 -179 -86 -388
-187 -590 -285 -93 -45 -228 -111 -300 -145 -173 -84 -420 -203 -640 -310
-182 -89 -376 -182 -630 -305 -77 -37 -221 -107 -320 -155 -99 -48 -238 -116
-310 -150 -71 -34 -202 -97 -290 -140 -320 -155 -492 -239 -610 -295 -66 -32
-201 -97 -300 -145 -99 -48 -247 -120 -330 -160 -82 -40 -222 -107 -310 -150
-88 -43 -232 -113 -320 -155 -88 -42 -225 -109 -305 -148 -80 -38 -221 -107
-315 -152 -93 -46 -219 -106 -280 -135 -60 -29 -218 -105 -350 -170 -314 -153
-347 -169 -365 -168 -9 1 -108 46 -220 101 -113 55 -308 150 -434 211 -125 61
-230 111 -231 111 -2 0 -150 72 -330 160 -180 88 -328 160 -330 160 -1 0 -110
52 -241 116 -132 64 -288 140 -349 169 -60 29 -200 97 -310 150 -110 53 -245
119 -300 145 -55 26 -199 96 -320 155 -121 59 -265 129 -320 155 -55 26 -185
89 -290 140 -369 179 -752 365 -950 460 -77 37 -216 105 -310 150 -93 45 -235
114 -315 152 -80 39 -219 106 -310 150 -91 44 -223 109 -295 143 -226 109
-414 200 -605 292 -189 92 -331 161 -640 311 -96 46 -242 117 -325 157 -82 40
-215 104 -295 143 -80 38 -226 109 -325 157 -99 48 -234 113 -300 145 -66 32
-201 97 -300 145 -235 114 -456 221 -630 305 -77 37 -216 105 -310 150 -93 45
-233 113 -310 150 -77 37 -225 109 -330 160 -104 51 -244 118 -310 150 -66 32
-201 97 -300 145 -99 48 -243 118 -320 155 -77 37 -207 100 -290 140 -82 40
-220 106 -305 148 -662 319 -770 372 -851 412 l-76 39 -64 -31z"/>
</g>
</svg>
